<svg width="36" height="36" viewBox="0 0 36 36" fill="none" xmlns="http://www.w3.org/2000/svg">
<path d="M22.1663 25.5V23.8333C22.1663 22.9493 21.8152 22.1014 21.19 21.4763C20.5649 20.8512 19.7171 20.5 18.833 20.5H12.1663C11.2823 20.5 10.4344 20.8512 9.80932 21.4763C9.1842 22.1014 8.83301 22.9493 8.83301 23.8333V25.5" stroke="#888C95" stroke-width="1.66667" stroke-linecap="round" stroke-linejoin="round"/>
<path d="M15.5003 17.1667C17.3413 17.1667 18.8337 15.6743 18.8337 13.8333C18.8337 11.9924 17.3413 10.5 15.5003 10.5C13.6594 10.5 12.167 11.9924 12.167 13.8333C12.167 15.6743 13.6594 17.1667 15.5003 17.1667Z" stroke="#888C95" stroke-width="1.66667" stroke-linecap="round" stroke-linejoin="round"/>
<path d="M27.167 25.5001V23.8334C27.1664 23.0948 26.9206 22.3774 26.4681 21.7937C26.0156 21.2099 25.3821 20.793 24.667 20.6084" stroke="#888C95" stroke-width="1.66667" stroke-linecap="round" stroke-linejoin="round"/>
<path d="M21.333 10.6084C22.05 10.792 22.6855 11.209 23.1394 11.7937C23.5932 12.3783 23.8395 13.0974 23.8395 13.8376C23.8395 14.5777 23.5932 15.2968 23.1394 15.8815C22.6855 16.4661 22.05 16.8831 21.333 17.0667" stroke="#888C95" stroke-width="1.66667" stroke-linecap="round" stroke-linejoin="round"/>
</svg>
