<svg width="36" height="36" viewBox="0 0 36 36" fill="none" xmlns="http://www.w3.org/2000/svg">
<path d="M15.8289 24.1424L16.3159 25.2378C16.4607 25.5639 16.697 25.8409 16.9961 26.0353C17.2952 26.2298 17.6443 26.3332 18.0011 26.3332C18.3579 26.3332 18.707 26.2298 19.0061 26.0353C19.3052 25.8409 19.5415 25.5639 19.6863 25.2378L20.1733 24.1424C20.3467 23.7538 20.6383 23.4297 21.0067 23.2165C21.3773 23.0027 21.8061 22.9116 22.2317 22.9563L23.4233 23.0832C23.778 23.1207 24.136 23.0545 24.4539 22.8926C24.7717 22.7307 25.0358 22.4801 25.2141 22.1711C25.3925 21.8623 25.4776 21.5084 25.4588 21.1522C25.4401 20.7961 25.3184 20.453 25.1085 20.1647L24.4029 19.1952C24.1517 18.8474 24.0175 18.4289 24.0196 17.9998C24.0195 17.572 24.155 17.1551 24.4067 16.8091L25.1122 15.8397C25.3221 15.5513 25.4438 15.2082 25.4625 14.8521C25.4813 14.4959 25.3962 14.142 25.2178 13.8332C25.0395 13.5242 24.7754 13.2736 24.4576 13.1117C24.1397 12.9498 23.7817 12.8836 23.427 12.9211L22.2354 13.048C21.8098 13.0927 21.381 13.0016 21.0104 12.7878C20.6413 12.5734 20.3496 12.2476 20.177 11.8572L19.6863 10.7619C19.5415 10.4358 19.3052 10.1588 19.0061 9.96434C18.707 9.76991 18.3579 9.66645 18.0011 9.6665C17.6443 9.66645 17.2952 9.76991 16.9961 9.96434C16.697 10.1588 16.4607 10.4358 16.3159 10.7619L15.8289 11.8572C15.6563 12.2476 15.3646 12.5734 14.9955 12.7878C14.6249 13.0016 14.1961 13.0927 13.7705 13.048L12.5752 12.9211C12.2204 12.8836 11.8625 12.9498 11.5446 13.1117C11.2267 13.2736 10.9627 13.5242 10.7844 13.8332C10.6059 14.142 10.5209 14.4959 10.5397 14.8521C10.5584 15.2082 10.6801 15.5513 10.89 15.8397L11.5955 16.8091C11.8472 17.1551 11.9827 17.572 11.9826 17.9998C11.9827 18.4277 11.8472 18.8445 11.5955 19.1906L10.89 20.16C10.6801 20.4484 10.5584 20.7914 10.5397 21.1476C10.5209 21.5038 10.6059 21.8577 10.7844 22.1665C10.9629 22.4753 11.227 22.7258 11.5448 22.8877C11.8626 23.0495 12.2205 23.1158 12.5752 23.0785L13.7668 22.9517C14.1924 22.907 14.6212 22.9981 14.9918 23.2119C15.3623 23.4257 15.6553 23.7515 15.8289 24.1424Z" stroke="#888C95" stroke-width="2" stroke-linecap="round" stroke-linejoin="round"/>
<path d="M17.9996 20.4998C19.3803 20.4998 20.4996 19.3805 20.4996 17.9998C20.4996 16.6191 19.3803 15.4998 17.9996 15.4998C16.6189 15.4998 15.4996 16.6191 15.4996 17.9998C15.4996 19.3805 16.6189 20.4998 17.9996 20.4998Z" stroke="#888C95" stroke-width="2" stroke-linecap="round" stroke-linejoin="round"/>
</svg>
